<svg id="svg8" xmlns="http://www.w3.org/2000/svg" viewBox="0 0 1590.32 214.87"><defs><style>.cls-1,.cls-2{isolation:isolate;}.cls-2{font-size:36.83px;font-family:ArialMT, Arial;}</style></defs><g id="layer1"><g id="g51"><path id="path40" d="M1441.38,211.92c-19.21-5.08-34.81-20.35-34.89-34.16,0-8.18,3-8.17,14,.05,14.09,10.51,20.23,13.32,35,16.05,9.86,1.81,15.9,1.83,26.51.08,16.47-2.72,29.24-7.53,29.24-11,0-3.7-13.77-34.26-17.34-38.48-1.67-2-6.09-5.18-9.83-7.1a56.72,56.72,0,0,1-12.49-9.5c-3.13-3.3-7.32-6-9.3-6s-19.24,3.93-38.36,8.74c-35.15,8.82-43.86,10.25-41.77,6.86,2-3.18,90.63-31.45,95.11-30.33,2.29.58,5.31,3.19,6.71,5.82s6.59,6.84,11.52,9.37c6.5,3.34,9.1,5.9,9.48,9.35,1.06,9.64,13,47,15.35,47.84,1.32.51,7.65-3.12,14.06-8.06,12.23-9.41,28.25-28.49,40.26-47.94,8.25-13.37,12.94-13,7.53.65-9,22.56-27,46.54-46.09,61.38-11.27,8.75-11.58,9.23-10.44,16.33,1.34,8.39-1.82,10-4.7,2.46-2.22-5.83-2.13-5.82-11.52-1-11.7,6-34.88,11.72-46.65,11.58a106,106,0,0,1-21.39-3Zm-253.22-38.58c-4.27-1.61-8-2.93-8.2-3s-1.85-2.75-3.57-6.08a19.32,19.32,0,0,1,3.92-23c4.47-4.19,4.55-4.68,1.61-9.16-2.8-4.28-2.82-5.33-.12-11,2.83-5.94,2.75-6.54-1.63-12-6.08-7.6-6.48-23.91-.77-31.92,6.41-9,15.82-11.51,38.46-10.26,19.17,1,19.78,1.23,19.78,5.65,0,3.6-1.05,4.57-4.92,4.57-4.27,0-4.65.5-2.91,3.76,3,5.67,2.41,19.22-1.17,25.27-4.55,7.7-13.49,12.29-24.71,12.69-6.78.24-10.37,1.34-11.79,3.62-2.83,4.54,1.48,7,12.51,7.07,21.87.19,33.14,7.19,33.33,20.67.06,4.27-1,9.59-2.44,11.82-6.8,10.9-32.21,16.91-47.38,11.22Zm29-9.6c7.51-3.14,11.53-9.24,9.77-14.8s-7-7.67-21-9c-11.71-1.09-12.46-.89-16.49,4.22-4.25,5.41-5.36,11.79-2.73,15.68C1191.29,166.6,1205.87,168.46,1217.17,163.74Zm-4.9-56.37c6.27-3.24,7.9-6.45,7.9-15.54,0-8.93-5.24-14.64-14.57-15.88-14.51-1.94-24.15,11.59-17.47,24.52,4.83,9.32,14.25,12,24.14,6.9Zm-863.35,33.5c-3.74-1-8.41-3.34-10.39-5.11-16.09-14.43-14.32-52.41,3-65,6.28-4.57,24.35-6.56,30.37-3.34,4.11,2.21,4.16,2,4.16-16.27V32.59h21.22l.55,53.21L398.4,139l-9.52.64c-7.6.51-9.7,0-10.37-2.58-.78-3-1.33-3-7,.25-8.43,4.79-14.63,5.76-22.62,3.55Zm23.16-18.53c3.81-3.09,4.13-5,3.61-20.82-.55-16.81-.75-17.48-5.64-19.2-12.87-4.51-21.13,4.5-21.13,23,0,8.94.84,11.7,4.76,15.62C359.28,126.57,366.23,127.09,372.08,122.34ZM73.14,135.92c-.93-2.4-2.57-6.58-3.62-9.28-1.9-4.88-2.1-4.92-21.83-4.37l-19.91.55-2.85,8.25-2.85,8.25H0l10.65-27.65c5.86-15.21,14.33-37.26,18.83-49l8.17-21.34,10.68-.57L59,40.19,77.83,88.45C88.19,115,96.66,137.21,96.66,137.83s-4.9,1.43-10.9,1.79c-9.82.6-11.08.23-12.62-3.7ZM55.71,87.41c-3.28-9.34-6.35-18.23-6.84-19.77-.62-2-13.88,31.73-14.26,36.26,0,.27,6.06.49,13.51.49H61.66Zm59.39,49.48c-6.8-5.87-8.63-15.26-8.69-44.63l0-24.74h21.34V93.58c0,21.59.55,26.6,3.19,29.25,3.92,3.92,11.4,2.45,17.77-3.5,4.27-4,4.45-5.25,3.89-28L152,67.51H172.1l.6,35.42c.34,19.47.61,35.55.61,35.72s-4.37.58-9.7.91c-8.67.54-9.77.16-10.31-3.57l-.6-4.17-6.94,4.72c-9.38,6.36-23.49,6.52-30.66.34Zm89.56,2.17c-6.44-3.74-9-13.93-9-35.45V83.3l-5.34-.61c-4.63-.53-5.42-1.57-5.94-7.89-.57-7-.34-7.28,5.34-7.28,5.9,0,5.94-.06,5.94-10.67V46.18H217V67.52h15.52V83H217v19.17c0,21.44,1.64,24.75,11.21,22.65,5.06-1.11,5.74-.61,7.67,5.67,1.84,6,1.65,7.14-1.46,8.81-4.75,2.54-25.21,2.35-29.73-.28Zm59.75-.53c-26.73-11.65-26.44-59.07.43-70.3,7.57-3.16,23.48-3.46,31.08-.58,28.87,10.94,28.87,60.6,0,71.54C288.46,142,271.61,141.66,264.41,138.53Zm27.25-16.66c4.47-4.94,6-20.73,2.94-30.05-3.72-11.27-15-14.74-23.7-7.29-7.06,6.06-6.74,30.19.51,37.43,5,5,15.67,5,20.25-.09Zm136.83,15C417.08,131.08,411,119.74,411,104.21c0-13.34,2.31-20.19,9.34-27.71s15.65-10.92,27-10.92c18.43,0,28.81,10.68,31,31.9l1.11,10.79H455.91c-13.31,0-23.55.79-23.55,1.81,0,13.67,18.33,21.09,33.27,13.48,2.34-1.19,4-.35,6.31,3.11,4.47,6.84,3.93,8.62-3.62,11.78-10.49,4.38-29.64,3.63-39.83-1.56Zm29.47-47c-.75-4.91-7.41-10.68-12.32-10.68-4.53,0-13.28,8.31-13.28,12.62,0,2.57,2.17,3,13.1,2.51C457.3,93.77,458.5,93.35,458,89.84Zm37,49c-3.47-1.11-6.31-3.27-6.31-4.78,0-2.28,3-9.56,4.9-11.83.27-.33,4.78.81,10,2.52,7.27,2.38,10.8,2.64,14.9,1.08,8.56-3.26,5.69-8.08-9-15.09C488.15,100.55,483.18,86,496.43,72.5c4.65-4.73,7.54-5.83,17.13-6.52,11.69-.85,25.52,2.23,25.52,5.67,0,1-1.34,4.48-3,7.64-2.48,4.81-3.58,5.43-6.66,3.79-5.79-3.1-19.4-2.47-20.71,1-1.7,4.42,2.44,8.15,12.95,11.64,11.62,3.86,21.28,14,21.28,22.46,0,8.8-5.27,17.26-12.68,20.36s-26,3.33-35.34.34Zm61.6-52.4V32.59H576L576,64.13l.07,31.53L584.26,86l12.07-14.18c3.34-3.94,5.33-4.49,14.4-4l10.52.6L610.9,81.1c-5.69,6.94-11.51,14-12.93,15.66-2.22,2.62-.67,5.81,11.1,22.8l13.68,19.76H598.26l-10.67-17-10.67-17-.56,16.79L575.8,139l-9.63.67-9.63.67V86.44Zm146,51c-8.89-4-9.46-5.08-5.58-10.19,2.39-3.15,3-3.12,10,.49,16.5,8.41,35.8,1.63,35.8-12.58,0-8.27-6.83-15.08-23.57-23.52-7.09-3.57-14.64-8.7-16.76-11.4C690.38,64.82,699.92,42.35,720,39.1c9.69-1.57,23.77.76,28.69,4.76,3.59,2.91,3.74,3.72,1.33,7-2.6,3.56-3.06,3.58-10.8.49-16.7-6.68-29.34-1.46-29.34,12.13,0,8.58,2.55,11.32,17.46,18.77,21.87,10.92,27.17,17.44,27.17,33.42,0,11.1-4.16,17.61-14.31,22.43C731,142.44,712.89,142.12,702.56,137.43Zm83,.54c-3.93-2-8.63-6.87-11.16-11.49-13.27-24.2-2.39-56,20.47-59.87,34.94-5.9,54.91,38.39,29.56,65.57-6.9,7.4-8.14,7.94-19.73,8.59-9.17.52-14.11-.21-19.14-2.8Zm30-11c9-9,10.63-27,3.63-40.58-3.5-6.76-14.49-11.75-22.17-10.06-12.4,2.72-19.86,21.16-15.34,37.92,3.23,12,9.49,17.35,20.34,17.35,6.8,0,10-1.1,13.54-4.63Zm94.13,10.82c-4.68-3.79-4.85-4.74-5.46-32.21l-.62-28.32h-5.68c-4.77,0-5.68-.78-5.68-4.85s.91-4.85,5.82-4.85c5.69,0,5.82-.21,5.82-9.7s.13-9.7,5.82-9.7,5.82.21,5.82,9.7v9.7h8.74c8,0,8.73.4,8.73,4.85s-.71,4.85-8.79,4.85h-8.78L916,103.9l.54,26.69,9.08-.12c7.53-.09,9.27.56,10.11,3.8,1.37,5.24.83,5.57-11,6.55-8.17.67-11.17.06-15-3.07ZM1033,139.69c-.56-.56-1-13.37-1-28.46,0-31.13-1.21-34.73-11.62-34.43-4.41.12-8.39,2.13-12.9,6.5l-6.53,6.33v49.69H989.17l.53-35.42.53-35.41,5.34-.61c4.3-.5,5.33.16,5.33,3.39,0,5,.74,5,8-.35,8.64-6.39,21.31-6,28.15.83l5.21,5.2,6.63-5.06c9.71-7.4,24.28-7.42,30.63,0,5.78,6.72,7.11,16.1,6.37,45l-.59,23.11-5.33.24-5.34.23v-27.5c0-23.38-.51-28.1-3.4-31.49-5.59-6.56-13.25-6.28-21.68.82l-6,5v51.59l-4.8.92c-2.65.51-5.26.46-5.82-.09Zm76.68-3.87c-6.84-6.85-8-17.83-2.74-25.39,4.45-6.34,17.48-11.77,28.37-11.82l9.22,0,0-7.28c0-8.89-1.46-11.31-8.13-13.85-5.48-2.08-13.41-.59-20.55,3.86-3.68,2.3-4.54,2.15-7.08-1.21s-2.52-4.16,1.1-7.21c9.7-8.16,29.8-8.79,39.41-1.23,5.92,4.65,6.74,9.31,7.38,42l.51,25.71h-5.34c-3.45,0-5.33-1-5.33-2.91,0-3.78-1.76-3.68-6.19.32-2,1.86-8.08,3.62-14.13,4.12-9.73.81-11,.41-16.47-5Zm29.73-8.29c4.15-3.26,5.12-5.64,5.12-12.61,0-8.55,0-8.59-6.89-8.59-16.08,0-27.8,13.55-19.17,22.18C1122.72,132.79,1133.32,132.3,1139.38,127.53Zm125.22,9.35C1251.24,128,1245,103,1251.9,86.35c3.57-8.55,14.84-18,23.32-19.62,19.33-3.63,34.21,9.43,34.21,30v7.64h-24.25c-23.09,0-24.26.19-24.26,3.94,0,6.41,5.07,16.66,9.93,20.06,5.66,4,19.52,4.09,27,.24,5.25-2.71,5.8-2.65,7.67.85,2.91,5.45,2.69,5.87-4.72,9-10.61,4.43-28.28,3.66-36.16-1.57Zm33.19-46c0-5.56-7.88-13.54-14.55-14.73-7.67-1.38-17.28,4.62-20,12.5l-2.1,6h18.34c16.86,0,18.33-.3,18.33-3.78ZM855.37,108.27v-31h-5.82c-4.92,0-5.82-.75-5.82-4.85s.9-4.85,5.82-4.85c5.51,0,5.82-.42,5.82-7.82,0-9.42,3.77-19,9.51-24.08,4.74-4.22,26-6.81,28.09-3.42,2.89,4.68-1.17,8.16-9.53,8.16-10.88,0-16.43,6.31-16.43,18.69v8.47h8.74c8,0,8.73.4,8.73,4.85s-.71,4.85-8.73,4.85H867v62.1H855.37Zm98.39-4.37.39-35.41h10.07l.39,35.41.4,35.42H953.36ZM1389,120c0-5.3,17.43-39.9,28.78-57.12a232.27,232.27,0,0,1,20.17-25.58c7.75-8.29,11.2-13.55,11.2-17.07,0-5.23,2.9-7,4.41-2.66.58,1.68,5,.23,14.36-4.8,23.64-12.63,51.33-16.13,74.4-9.39,21.26,6.2,40.72,25.79,40.72,41,0,4.09-.9,8-2,8.67s-7.18-3.56-13.51-9.43c-16.5-15.27-28.44-19.42-52.4-18.22C1497,26.27,1479.8,31,1469.06,38l-4.33,2.81,12.63,24.83c7.71,15.17,14.54,26.09,17.56,28.06,10.41,6.82,23.68,7.85,55.49,4.28,51.29-5.75,52.66-4.26,6.88,7.48-17.32,4.45-35.59,9.7-40.58,11.66l-9.09,3.58-8.58-7.91c-4.72-4.35-10.37-8.48-12.56-9.17-4.37-1.39-5.52-3.66-18-35.56-5.87-15-9.52-21.83-11.62-21.83-8.84,0-39,32.44-54.6,58.82-11,18.64-13.24,21.12-13.24,15ZM631.51,88.73c-7.22-5.69-7.22-17.33,0-23,6.68-5.25,12.84-5.09,19.36.52,3.78,3.25,5.28,6.39,5.28,11s-1.5,7.74-5.28,11c-6.52,5.61-12.68,5.78-19.36.53Zm18.66-3.37c5.13-4.4,4.3-13-1.72-17.7-2.81-2.21-6.18-4-7.5-4s-4.68,1.81-7.5,4c-6,4.73-6.84,13.28-1.71,17.74,6.53,5.7,11.76,5.69,18.43,0Zm-13.8-7.65c-.25-9.68,0-10.19,4.64-10.19,5.72,0,8.23,4.6,4.77,8.76-1.9,2.29-1.89,3.49.06,5.84,1.35,1.63,2,3.46,1.35,4.07s-2.26-.72-3.66-3c-3.27-5.23-5-5.15-6.06.3-.46,2.4-1-.22-1.1-5.82Zm7.12-4.51a2.58,2.58,0,0,0-5.07,0c-.39,1.14.76,2.08,2.53,2.08S643.88,74.34,643.49,73.2ZM952.43,51.07c-4.14-5,.51-13.08,7.06-12.3s10.18,6.13,7.25,10.8c-2.81,4.49-11.11,5.36-14.31,1.5Z"/><g id="text42" class="cls-1"><text class="cls-2" transform="translate(1315.76 87.26)">®</text></g></g></g></svg>