<?xml version="1.0" encoding="UTF-8" standalone="no"?>
<svg
   xmlns:dc="http://purl.org/dc/elements/1.1/"
   xmlns:cc="http://creativecommons.org/ns#"
   xmlns:rdf="http://www.w3.org/1999/02/22-rdf-syntax-ns#"
   xmlns:svg="http://www.w3.org/2000/svg"
   xmlns="http://www.w3.org/2000/svg"
   xmlns:sodipodi="http://sodipodi.sourceforge.net/DTD/sodipodi-0.dtd"
   xmlns:inkscape="http://www.inkscape.org/namespaces/inkscape"
   width="561.02954mm"
   height="75.800964mm"
   viewBox="0 0 561.02954 75.800964"
   version="1.1"
   id="svg8"
   inkscape:version="1.0.2-2 (e86c870879, 2021-01-15)"
   sodipodi:docname="Softimage_logo.svg">
  <defs
     id="defs2">
    <rect
       x="381.56699"
       y="-132.66963"
       width="37.230656"
       height="25.324406"
       id="rect44" />
  </defs>
  <sodipodi:namedview
     id="base"
     pagecolor="#ffffff"
     bordercolor="#666666"
     borderopacity="1.0"
     inkscape:pageopacity="0.0"
     inkscape:pageshadow="2"
     inkscape:zoom="0.35"
     inkscape:cx="1595.7475"
     inkscape:cy="333.33406"
     inkscape:document-units="mm"
     inkscape:current-layer="layer1"
     inkscape:document-rotation="0"
     showgrid="false"
     inkscape:window-width="1920"
     inkscape:window-height="1017"
     inkscape:window-x="-8"
     inkscape:window-y="-8"
     inkscape:window-maximized="1" />
  <metadata
     id="metadata5">
    <rdf:RDF>
      <cc:Work
         rdf:about="">
        <dc:format>image/svg+xml</dc:format>
        <dc:type
           rdf:resource="http://purl.org/dc/dcmitype/StillImage" />
        <dc:title></dc:title>
      </cc:Work>
    </rdf:RDF>
  </metadata>
  <g
     inkscape:label="Layer 1"
     inkscape:groupmode="layer"
     id="layer1"
     transform="translate(121.89492,60.424498)">
    <g
       id="g51"
       transform="matrix(0.69712218,0,0,0.69712218,24.145111,23.81794)">
      <path
         style="fill:#000000;stroke-width:0.981952"
         d="m 519.91937,-13.6025 c -9.72236,-2.56997 -17.61625,-10.29792 -17.65898,-17.28777 -0.0253,-4.13753 1.50882,-4.13166 7.08396,0.0271 7.13009,5.31862 10.23528,6.74186 17.71677,8.12038 4.98552,0.91862 8.04297,0.92809 13.41109,0.0415 8.33911,-1.37719 14.79744,-3.80841 14.79744,-5.57046 0,-1.87136 -6.96482,-17.33486 -8.77125,-19.47419 -0.84659,-1.0026 -3.08582,-2.61917 -4.97608,-3.5924 -1.89026,-0.97321 -4.73467,-3.13559 -6.32091,-4.80527 -1.58625,-1.66968 -3.70299,-3.03578 -4.70389,-3.03578 -1.00088,0 -9.73796,1.98845 -19.41572,4.41878 -17.78737,4.46686 -22.19653,5.1917 -21.13524,3.47448 0.99456,-1.60923 45.86312,-15.91684 48.13048,-15.34776 1.15671,0.29031 2.685,1.61511 3.39619,2.944 0.71121,1.32888 3.33306,3.46367 5.82635,4.74397 3.29127,1.69004 4.60586,2.98578 4.79832,4.72948 0.53819,4.87611 6.59893,23.75999 7.76994,24.20935 0.66597,0.25557 3.86809,-1.58003 7.11581,-4.07909 6.18587,-4.75993 14.29596,-14.41822 20.36921,-24.25766 4.17733,-6.7678 6.55103,-6.5636 3.81026,0.32778 -4.54007,11.41545 -13.65069,23.54884 -23.32093,31.05846 -5.70432,4.42981 -5.8599,4.6731 -5.28552,8.26511 0.67864,4.24397 -0.91906,5.08142 -2.37726,1.24607 -1.12208,-2.95132 -1.07696,-2.94727 -5.83042,-0.52226 -5.91697,3.01862 -17.64717,5.92944 -23.6084,5.85837 -2.98127,-0.0356 -7.85081,-0.70704 -10.82122,-1.49223 z M 391.77462,-33.12619 c -2.1603,-0.81114 -4.02693,-1.48144 -4.14808,-1.48957 -0.12116,-0.008 -0.93355,-1.39411 -1.80532,-3.07993 -2.01415,-3.89493 -1.20591,-8.62831 1.98521,-11.62621 2.25767,-2.12098 2.30095,-2.36747 0.81409,-4.63672 -1.42021,-2.16752 -1.4262,-2.69895 -0.0626,-5.55841 1.43151,-3.00191 1.38984,-3.30907 -0.82424,-6.07631 -3.07855,-3.84764 -3.278,-12.09801 -0.3905,-16.15313 3.24297,-4.55432 8.00504,-5.82482 19.46559,-5.19331 9.69717,0.53435 10.00565,0.62263 10.00565,2.86343 0,1.82016 -0.52968,2.3121 -2.48943,2.3121 -2.15695,0 -2.35367,0.25367 -1.47293,1.89935 1.53553,2.86917 1.21939,9.72857 -0.58952,12.79082 -2.30166,3.89639 -6.82859,6.22006 -12.50702,6.41986 -3.4292,0.12066 -5.24409,0.67877 -5.96405,1.83406 -1.43113,2.29645 0.74895,3.52843 6.32976,3.577 11.0654,0.0963 16.77171,3.63559 16.8659,10.4609 0.0297,2.15786 -0.52425,4.84954 -1.23119,5.98154 -3.44341,5.51378 -16.30442,8.55699 -23.9813,5.67453 z m 14.68178,-4.85806 c 3.80062,-1.588 5.83814,-4.67237 4.94515,-7.4859 -0.87134,-2.74538 -3.52754,-3.88148 -10.62435,-4.54419 -5.92148,-0.55296 -6.30494,-0.45486 -8.34116,2.13378 -2.15127,2.7349 -2.71446,5.96582 -1.38286,7.93319 2.30957,3.41226 9.68518,4.35227 15.40322,1.96312 z m -2.47761,-28.52342 c 3.17197,-1.64029 3.99804,-3.26502 3.99804,-7.86346 0,-4.51874 -2.65166,-7.40942 -7.37468,-8.03945 -7.34433,-0.97971 -12.22117,5.86719 -8.8384,12.40874 2.44065,4.71968 7.208,6.08341 12.21504,3.49417 z m -436.898493,16.95133 c -1.890258,-0.52402 -4.25714,-1.68841 -5.25974,-2.58752 -8.1393,-7.29923 -7.2419,-26.52144 1.5367,-32.91558 3.178714,-2.3153 12.318823,-3.32055 15.365644,-1.68994 2.083271,1.11493 2.104726,1.03095 2.104726,-8.23668 v -9.36309 h 5.370395 5.3703945 l 0.27583,26.9261 0.27583,26.92611 -4.8200385,0.32444 c -3.843685,0.25872 -4.906521,-0.006 -5.246964,-1.30812 -0.393458,-1.50459 -0.669897,-1.49447 -3.526553,0.12905 -4.263254,2.42293 -7.404676,2.91563 -11.446224,1.79523 z m 11.718627,-9.37752 c 1.928161,-1.56537 2.09089,-2.50362 1.827197,-10.53495 -0.279326,-8.50746 -0.379299,-8.84802 -2.851943,-9.71509 -6.511609,-2.2834 -10.693881,2.2743 -10.693881,11.65382 0,4.52401 0.425588,5.91973 2.410251,7.90438 2.832568,2.83258 6.349518,3.09398 9.308376,0.69184 z m -151.274554,6.87366 c -0.47478,-1.21516 -1.30007,-3.3296 -1.83399,-4.69875 -0.96208,-2.46712 -1.06072,-2.48685 -11.04696,-2.20939 l -10.0762,0.27996 -1.44266,4.1733 -1.44265,4.1733 h -5.58589 -5.58589 l 5.39103,-13.99282 c 2.96506,-7.69605 7.25147,-18.85348 9.52534,-24.79429 l 4.13432,-10.80148 5.40449,-0.28853 5.40449,-0.28852 9.52836,24.42262 c 5.24059,13.43245 9.52836,24.67883 9.52836,24.99195 0,0.31312 -2.48376,0.72068 -5.51946,0.90568 -4.97003,0.30288 -5.60539,0.11644 -6.38269,-1.87303 z m -8.82353,-24.5488 c -1.65737,-4.72565 -3.21348,-9.2272 -3.45802,-10.00346 -0.31687,-1.00582 -7.02859,16.05606 -7.21845,18.35005 -0.0112,0.13502 3.06447,0.24549 6.83477,0.24549 h 6.85509 z m 30.05757,25.03978 c -3.4452,-2.97215 -4.3709,-7.72514 -4.3987,-22.5849 l -0.0234,-12.51989 h 5.40074 5.40073 v 13.18621 c 0,10.92435 0.27687,13.46308 1.6141,14.80031 1.9857,1.9857 5.7713,1.24183 8.99479,-1.76748 2.16021,-2.01667 2.24883,-2.65595 1.9639,-14.1673 l -0.29839,-12.05532 5.09327,0.002 5.09326,0.002 0.30748,17.92063 c 0.1691,9.85634 0.30747,17.99204 0.30747,18.07934 0,0.0873 -2.20939,0.29508 -4.90976,0.46178 -4.38753,0.27083 -4.94217,0.0786 -5.2144,-1.80739 l -0.30465,-2.11046 -3.51471,2.38514 c -4.74725,3.22157 -11.88731,3.30247 -15.5117,0.17575 z m 45.31993,1.0973 c -3.25763,-1.89363 -4.57226,-7.05154 -4.57226,-17.93922 v -10.27681 l -2.70037,-0.31071 c -2.34441,-0.26976 -2.74054,-0.79611 -3.00514,-3.99303 -0.29127,-3.51937 -0.17177,-3.68232 2.70037,-3.68232 2.98795,0 3.00514,-0.0309 3.00514,-5.40074 v -5.40074 h 5.40074 5.400727 v 5.40074 5.40074 h 3.92781 3.92781 v 3.9278 3.92781 h -3.92781 -3.92781 v 9.6993 c 0,10.84697 0.83055,12.52429 5.67471,11.46034 2.55881,-0.56201 2.90477,-0.30597 3.87998,2.87157 0.93229,3.03768 0.83656,3.6139 -0.74062,4.45799 -2.40234,1.28569 -12.754907,1.18747 -15.043277,-0.14272 z m 30.238357,-0.26912 c -13.52873,-5.89275 -13.38248,-29.89339 0.21678,-35.57551 3.82919,-1.59995 11.87823,-1.74944 15.7247,-0.29206 14.61289,5.53668 14.61289,30.66474 0,36.20142 -3.77518,1.43037 -12.30105,1.25182 -15.94148,-0.33385 z m 13.78701,-8.42837 c 2.26408,-2.50178 3.04635,-10.48997 1.48927,-15.20794 -1.88308,-5.70581 -7.59294,-7.46152 -11.99305,-3.68772 -3.57553,3.06659 -3.40987,15.27357 0.25706,18.94049 2.53646,2.53646 7.93204,2.51287 10.24672,-0.0449 z m 69.2421665,7.60019 c -5.774281,-2.94065 -8.843107,-8.6799 -8.843107,-16.53822 0,-6.75022 1.16885703,-10.21799 4.726744,-14.02324 3.493776,-3.73669 7.9184635,-5.52529 13.6686375,-5.52529 9.325924,0 14.575705,5.40285 15.684005,16.14131 l 0.5637,5.46164 H 21.225042 c -6.739177,0 -11.9208025,0.39904 -11.9208025,0.91803 0,6.91391 9.2778775,10.67086 16.8383005,6.81845 1.18284,-0.60271 2.041214,-0.17864 3.191345,1.57669 2.265256,3.45721 1.987177,4.36145 -1.831989,5.9572 -5.306322,2.21712 -15.000792,1.8388 -20.1560225,-0.78657 z M 22.259499,-75.38156 c -0.380674,-2.48287 -3.74927,-5.40074 -6.235014,-5.40074 -2.292701,0 -6.7202455,4.2053 -6.7202455,6.38292 0,1.30297 1.1007005,1.51421 6.6281785,1.27207 5.996212,-0.26267 6.599465,-0.4776 6.327081,-2.25425 z m 18.712699,24.79748 c -1.755239,-0.56306 -3.191344,-1.6517 -3.191344,-2.41919 0,-1.15423 1.524971,-4.83565 2.479596,-5.98596 0.137326,-0.16548 2.420423,0.40916 5.07356,1.27695 3.680209,1.20374 5.468884,1.33259 7.544388,0.54348 4.329043,-1.64589 2.875852,-4.08829 -4.541274,-7.63257 -10.79677,-5.15925 -13.315566,-12.53387 -6.60954,-19.35169 2.354712,-2.39398 3.816878,-2.95099 8.667398,-3.30184 5.917655,-0.42804 12.916628,1.12693 12.916628,2.8697 0,0.52502 -0.677999,2.26568 -1.506669,3.86815 -1.257438,2.43161 -1.815285,2.74842 -3.372279,1.91514 -2.931687,-1.56898 -9.81576,-1.24915 -10.481985,0.48699 -0.859248,2.23918 1.237633,4.12357 6.553146,5.88911 5.884309,1.95445 10.771691,7.11126 10.771691,11.36549 0,4.45595 -2.666226,8.73801 -6.41637,10.30492 -3.816141,1.59448 -13.171219,1.68409 -17.886946,0.17132 z m 31.176372,-26.5159 6.09e-4,-27.24917 h 4.909761 4.909761 l 0.03427,15.95672 0.03427,15.95672 4.139016,-4.8648 c 2.27645,-2.67566 5.023098,-5.90618 6.103658,-7.17897 1.693995,-1.99534 2.698031,-2.27209 7.288098,-2.00885 l 5.323447,0.30529 -5.236799,6.38269 c -2.880243,3.51048 -5.824892,7.07634 -6.543671,7.92414 -1.124198,1.32598 -0.338891,2.93872 5.61824,11.53794 l 6.92512,9.99649 -6.1966,-0.002 -6.1966,-0.002 -5.400737,-8.59046 -5.400737,-8.59046 -0.28237,8.49979 -0.28237,8.4998 -4.873487,0.33777 -4.873488,0.33778 6.08e-4,-27.24918 z m 73.89251,25.80269 c -4.5024,-2.04372 -4.7902,-2.56885 -2.82549,-5.15555 1.21101,-1.5944 1.50517,-1.58021 5.08616,0.24548 8.34843,4.25629 18.11484,0.82617 18.11484,-6.36221 0,-4.18881 -3.45329,-7.63505 -11.92636,-11.90202 -3.58977,-1.80778 -7.40658,-4.40527 -8.48181,-5.7722 -6.13275,-7.79652 -1.30375,-19.1679 8.83886,-20.81382 4.90304,-0.79566 12.02555,0.38597 14.51784,2.4085 1.81418,1.47224 1.89197,1.88195 0.67309,3.54557 -1.31926,1.80065 -1.55267,1.81113 -5.4656,0.24548 -8.45257,-3.38204 -14.84921,-0.73742 -14.84921,6.13922 0,4.33936 1.29305,5.72885 8.83757,9.49666 11.06588,5.52639 13.74733,8.82587 13.74733,16.91578 0,5.61536 -2.10252,8.91079 -7.24084,11.34908 -4.62912,2.19667 -13.79903,2.03281 -19.02638,-0.33997 z m 41.98372,0.27213 c -1.98636,-1.02544 -4.36455,-3.47342 -5.64689,-5.81265 -6.7144,-12.24821 -1.21077,-28.33997 10.36138,-30.29508 17.68076,-2.98715 27.78715,19.42734 14.95989,33.17884 -3.49232,3.74394 -4.11919,4.0169 -9.98454,4.34756 -4.64351,0.26179 -7.14368,-0.10426 -9.68984,-1.41867 z m 15.19139,-5.58644 c 4.56836,-4.56835 5.38367,-13.67545 1.83811,-20.5318 -1.77046,-3.4237 -7.33072,-5.94916 -11.21823,-5.09531 -6.27364,1.37791 -10.04856,10.70837 -7.76438,19.19119 1.63677,6.07847 4.80259,8.77793 10.29444,8.77793 3.44138,0 5.06221,-0.55416 6.85006,-2.34201 z m 47.63769,5.47899 c -2.37194,-1.9185 -2.45369,-2.40101 -2.76221,-16.30432 l -0.31794,-14.32732 h -2.8734 c -2.41035,0 -2.87342,-0.39563 -2.87342,-2.45488 0,-2.07301 0.45825,-2.45488 2.94586,-2.45488 2.88038,0 2.94585,-0.10911 2.94585,-4.90976 0,-4.80066 0.0655,-4.90977 2.94586,-4.90977 2.88039,0 2.94585,0.10911 2.94585,4.90977 v 4.90976 h 4.41879 c 4.05873,0 4.41878,0.20002 4.41878,2.45488 0,2.25711 -0.3582,2.45488 -4.44649,2.45488 h -4.4465 l 0.2732,13.50184 0.2732,13.50184 4.59888,-0.0576 c 3.81113,-0.0477 4.68751,0.28132 5.1163,1.92102 0.69378,2.65302 0.41703,2.81813 -5.55362,3.31327 -4.13592,0.34297 -5.65159,0.0345 -7.60899,-1.54872 z m 62.38764,0.97757 c -0.28273,-0.28274 -0.51405,-6.76319 -0.51405,-14.40103 0,-15.75131 -0.61491,-17.57332 -5.88031,-17.42361 -2.2332,0.0635 -4.24409,1.07742 -6.52904,3.29207 l -3.30189,3.20032 v 12.57276 12.57275 h -2.96801 -2.96801 l 0.26764,-17.92063 0.26764,-17.92063 2.70037,-0.31071 c 2.17491,-0.25025 2.70037,0.0842 2.70037,1.71842 0,2.55336 0.375,2.53667 4.04984,-0.18027 4.37283,-3.23297 10.78338,-3.04277 14.24892,0.42276 l 2.63214,2.63215 3.35904,-2.56206 c 4.91236,-3.74683 12.28446,-3.75647 15.49996,-0.0203 2.92553,3.39927 3.59813,8.14807 3.22426,22.76455 l -0.29924,11.69917 -2.70037,0.11668 -2.70037,0.11666 v -13.91645 c 0,-11.83073 -0.25754,-14.21878 -1.71841,-15.93354 -2.82985,-3.32167 -6.70595,-3.17546 -10.97162,0.41386 l -3.0212,2.54218 v 13.05459 13.0546 l -2.43181,0.46486 c -1.33748,0.25568 -2.66312,0.23354 -2.94585,-0.0492 z m 38.80657,-1.95705 c -3.46408,-3.46408 -4.06355,-9.02309 -1.38536,-12.84675 2.24747,-3.2087 8.84126,-5.95688 14.35369,-5.98238 l 4.66427,-0.0216 -0.015,-3.68232 c -0.0184,-4.49768 -0.73894,-5.72579 -4.11192,-7.0082 -2.7754,-1.0552 -6.78818,-0.30114 -10.39964,1.95425 -1.86062,1.16198 -2.29605,1.08706 -3.58463,-0.61677 -1.32796,-1.75588 -1.27501,-2.1008 0.55957,-3.64501 4.90883,-4.13185 15.07787,-4.45073 19.94111,-0.6253 2.99616,2.35677 3.41088,4.71361 3.73666,21.23487 l 0.25657,13.01226 -2.70037,-9.9e-4 c -1.74508,-0.001 -2.70038,-0.52287 -2.70038,-1.47472 0,-1.9094 -0.88803,-1.8623 -3.12924,0.16596 -1.03805,0.93943 -4.09129,1.82799 -7.15394,2.08197 -4.9238,0.40832 -5.57745,0.20863 -8.33137,-2.54531 z m 15.04529,-4.19268 c 2.09907,-1.65112 2.58731,-2.85557 2.58731,-6.38269 0,-4.32553 -0.0176,-4.34751 -3.4856,-4.34751 -8.13804,0 -14.06557,6.85736 -9.70061,11.22231 2.1692,2.16921 7.53215,1.92021 10.5989,-0.49211 z m 63.36807,4.72762 c -6.76219,-4.49383 -9.94511,-17.1537 -6.42868,-25.56971 1.80709,-4.32499 7.511,-9.12439 11.80031,-9.92907 9.78461,-1.83561 17.31355,4.77211 17.31355,15.19512 v 3.86389 h -12.27441 c -11.68443,0 -12.2744,0.0959 -12.2744,1.99544 0,3.24345 2.56697,8.4293 5.02452,10.15063 2.86564,2.00717 9.87748,2.07016 13.64371,0.12258 2.65385,-1.37237 2.93277,-1.34171 3.87904,0.42642 1.47659,2.75902 1.36452,2.97225 -2.38571,4.5392 -5.36836,2.24304 -14.31144,1.85473 -18.29793,-0.7945 z m 16.79346,-23.25868 c 0,-2.81401 -3.98853,-6.8534 -7.36464,-7.45856 -3.8815,-0.69574 -8.74034,2.33981 -10.13112,6.3294 l -1.05917,3.03831 h 9.27747 c 8.53414,0 9.27746,-0.15297 9.27746,-1.90915 z m -223.88509,8.78281 v -15.71123 h -2.94586 c -2.48761,0 -2.94586,-0.38187 -2.94586,-2.45488 0,-2.07301 0.45825,-2.45488 2.94586,-2.45488 2.78611,0 2.94586,-0.21471 2.94586,-3.95935 0,-4.76642 1.90651,-9.59422 4.81103,-12.18287 2.40039,-2.13935 13.15322,-3.44837 14.21493,-1.73049 1.46268,2.36665 -0.5928,4.12538 -4.82145,4.12538 -5.50524,0 -8.3128,3.19534 -8.3128,9.46097 v 4.28636 h 4.41879 c 4.05873,0 4.41878,0.20002 4.41878,2.45488 0,2.25485 -0.36005,2.45488 -4.41878,2.45488 h -4.41879 v 15.71123 15.71124 h -2.94586 -2.94585 z m 49.7881,-2.20932 0.19951,-17.9207 h 2.54683 2.54683 l 0.19951,17.9207 0.19952,17.92069 h -2.94586 -2.94586 z m 220.24875,8.14115 c 0,-2.6814 8.82135,-20.19131 14.56261,-28.90598 2.49399,-3.78564 7.08679,-9.61135 10.20622,-12.94603 3.92459,-4.19541 5.67168,-6.85632 5.67168,-8.63829 0,-2.64734 1.46617,-3.53436 2.2278,-1.34779 0.29758,0.85431 2.50697,0.11633 7.26795,-2.42761 11.96435,-6.39295 25.97515,-8.16152 37.65143,-4.7527 10.7584,3.14084 20.60752,13.05098 20.60752,20.73518 0,2.06738 -0.45581,4.04058 -1.01292,4.38489 -0.55711,0.34431 -3.63498,-1.80153 -6.83971,-4.76854 -8.34825,-7.72902 -14.38931,-9.82968 -26.51569,-9.22035 -9.15785,0.46017 -17.87142,2.84113 -23.30506,6.36805 l -2.19308,1.42351 6.38931,12.56522 c 3.90421,7.67804 7.3607,13.2017 8.88682,14.20165 5.26793,3.45168 11.98178,3.96892 28.08259,2.16347 25.95498,-2.91043 26.64982,-2.15438 3.48179,3.78847 -8.7679,2.24907 -18.01035,4.90403 -20.53879,5.8999 l -4.59715,1.81069 -4.34296,-4.00319 c -2.38863,-2.20176 -5.24839,-4.29058 -6.35505,-4.64181 -2.21059,-0.70162 -2.79339,-1.85128 -9.12286,-17.99608 -2.97456,-7.58728 -4.81688,-11.04696 -5.88267,-11.04696 -4.47381,0 -19.71402,16.41986 -27.63058,29.76932 -5.59306,9.43138 -6.6992,10.68379 -6.6992,7.58498 z M 110.08676,-75.94381 c -3.65505,-2.87506 -3.65505,-8.76583 0,-11.64089 3.38014,-2.65881 6.4954,-2.57475 9.796,0.26431 1.91017,1.64305 2.67329,3.22913 2.67329,5.55614 0,2.32701 -0.76312,3.91309 -2.67329,5.55614 -3.3006,2.83906 -6.41586,2.92311 -9.796,0.2643 z m 9.44161,-1.70311 c 2.59412,-2.22796 2.17358,-6.56262 -0.86889,-8.95582 -1.42301,-1.11935 -3.13093,-2.03518 -3.79538,-2.03518 -0.66445,0 -2.37237,0.91583 -3.79538,2.03518 -3.04299,2.3936 -3.46158,6.71835 -0.86889,8.97694 3.30855,2.88223 5.95502,2.87624 9.32854,-0.0211 z m -6.98543,-3.87184 c -0.12702,-4.89657 -0.009,-5.15525 2.35197,-5.15525 2.89274,0 4.16018,2.3269 2.41369,4.43128 -0.96277,1.16007 -0.95659,1.76823 0.0301,2.95709 0.68316,0.82316 0.98883,1.74995 0.67925,2.05952 -0.30958,0.30958 -1.14166,-0.36391 -1.84907,-1.49665 -1.65435,-2.64906 -2.53584,-2.60598 -3.06665,0.14986 -0.23404,1.21517 -0.48572,-0.11047 -0.55927,-2.94585 z m 3.60588,-2.28304 c -0.19353,-0.58058 -0.77165,-1.0556 -1.28472,-1.0556 -0.51307,0 -1.0912,0.47502 -1.28472,1.0556 -0.19353,0.58058 0.38459,1.05559 1.28472,1.05559 0.90012,0 1.47825,-0.47501 1.28472,-1.05559 z m 156.33567,-11.19825 c -2.09446,-2.52367 0.25796,-6.61857 3.57451,-6.22218 3.33854,0.39901 5.15084,3.09853 3.669,5.46516 -1.42104,2.26953 -5.62372,2.70875 -7.24351,0.75702 z"
         id="path40"
         sodipodi:nodetypes="sssssssssssssssssssssssssssscsssssssssssssssssssssssssssssscssscccccscssssssssssscccccsscccsssssssscscscccsssscccsssscsccsscsssscccccccccccsssssssssscsssccssssscsssssssssssssssssssssssssssccccccssscssscccccccccccssssssssssssssssssssssssssssscsssssscssscccssssssssscccccccsssscssscccssscccsssssscsssssssccsssssssssssssscsssssssssscssccsssssssscssscccccccccccccccsssssssssssscssssscsssssssssssssssssssssssssssssssssssss" />
      <text
         xml:space="preserve"
         id="text42"
         style="font-style:normal;font-weight:normal;font-size:10.5833px;line-height:1.25;font-family:sans-serif;white-space:pre;shape-inside:url(#rect44);fill:#000000;fill-opacity:1;stroke:none;"
         transform="matrix(1.7610264,0,0,1.7610264,-215.60114,139.94391)"><tspan
           x="381.56641"
           y="-123.01446"><tspan
             style="fill:#000000;fill-opacity:1">®</tspan></tspan></text>
    </g>
  </g>
</svg>
